<svg width="19" height="19" viewBox="0 0 19 19" fill="none" xmlns="http://www.w3.org/2000/svg">
<path d="M16.625 10.2917V12.6667C16.625 13.5065 16.2914 14.312 15.6975 14.9058C15.1036 15.4997 14.2982 15.8333 13.4583 15.8333H5.54167C4.70181 15.8333 3.89636 15.4997 3.3025 14.9058C2.70863 14.312 2.375 13.5065 2.375 12.6667V10.7667C2.375 10.6407 2.42504 10.5199 2.51412 10.4308C2.6032 10.3417 2.72402 10.2917 2.85 10.2917H16.625ZM16.625 10.2917V5.54167C16.625 4.70181 16.2914 3.89636 15.6975 3.3025C15.1036 2.70863 14.2982 2.375 13.4583 2.375H9.5M12.6667 15.8333L13.4583 17.4167M6.33333 15.8333L5.54167 17.4167" stroke="black" stroke-width="1.5" stroke-linecap="round" stroke-linejoin="round"/>
<path d="M12.1916 6.33333H6.80824C6.54619 6.33333 6.3364 6.12117 6.3649 5.85992C6.48049 4.80937 7.01644 2.375 9.4999 2.375C11.9834 2.375 12.5193 4.80937 12.6349 5.85992C12.6634 6.12117 12.4536 6.33333 12.1916 6.33333Z" stroke="black" stroke-width="1.5" stroke-linecap="round" stroke-linejoin="round"/>
</svg>
