<svg width="18" height="18" viewBox="0 0 18 18" fill="none" xmlns="http://www.w3.org/2000/svg">
<g clip-path="url(#clip0_1408_1611)">
<g clip-path="url(#clip1_1408_1611)">
<path d="M15.75 8.9808H15.732L14.3109 5.7832C14.1782 5.48503 13.9619 5.23172 13.6882 5.0539C13.4145 4.87609 13.0951 4.78138 12.7688 4.78125H5.23125C4.90489 4.78141 4.58556 4.87613 4.31189 5.05394C4.03822 5.23176 3.82194 5.48506 3.68919 5.7832L2.26796 8.9808H2.25C1.95173 8.98114 1.66578 9.09977 1.45487 9.31068C1.24397 9.52158 1.12533 9.80754 1.125 10.1058V14.0433C1.12533 14.3416 1.24397 14.6275 1.45487 14.8384C1.66578 15.0493 1.95173 15.168 2.25 15.1683V16.5938C2.25028 16.8174 2.33926 17.0319 2.49744 17.1901C2.65561 17.3482 2.87006 17.4372 3.09375 17.4375H5.0625C5.28619 17.4372 5.50064 17.3482 5.65881 17.1901C5.81699 17.0319 5.90597 16.8174 5.90625 16.5938V15.1683H12.0938V16.5938C12.094 16.8174 12.183 17.0319 12.3412 17.1901C12.4994 17.3482 12.7138 17.4372 12.9375 17.4375H14.9062C15.1299 17.4372 15.3444 17.3482 15.5026 17.1901C15.6607 17.0319 15.7497 16.8174 15.75 16.5938V15.1683C16.0483 15.168 16.3342 15.0493 16.5451 14.8384C16.756 14.6275 16.8747 14.3416 16.875 14.0433V10.1058C16.8747 9.80754 16.756 9.52158 16.5451 9.31068C16.3342 9.09977 16.0483 8.98114 15.75 8.9808ZM4.71709 6.24023C4.76134 6.14082 4.83345 6.05637 4.9247 5.99709C5.01596 5.93781 5.12244 5.90626 5.23125 5.90625H12.7688C12.8775 5.90629 12.984 5.93785 13.0752 5.99713C13.1664 6.0564 13.2385 6.14084 13.2828 6.24023L14.5008 8.98077H3.49907L4.71709 6.24023ZM4.78125 16.3125H3.375V15.1683H4.78125V16.3125ZM14.625 16.3125H13.2188V15.1683H14.625V16.3125ZM15.75 14.0433H2.25V10.1058H15.75V14.0433Z" fill="black"/>
<path d="M3.375 12.0937C3.375 11.7831 3.62684 11.5312 3.9375 11.5312H5.625C5.93566 11.5312 6.1875 11.7831 6.1875 12.0937C6.1875 12.4044 5.93566 12.6562 5.625 12.6562H3.9375C3.62684 12.6562 3.375 12.4044 3.375 12.0937ZM11.8125 12.0937C11.8125 11.7831 12.0643 11.5312 12.375 11.5312H14.0625C14.3732 11.5312 14.625 11.7831 14.625 12.0937C14.625 12.4044 14.3732 12.6562 14.0625 12.6562H12.375C12.0643 12.6562 11.8125 12.4044 11.8125 12.0937ZM9.7452 0.818006C9.26695 0.625984 8.73304 0.625985 8.2548 0.818006L0.915412 3.76486C0.702213 3.85046 0.5625 4.05712 0.5625 4.28686C0.5625 4.68512 0.965003 4.95725 1.33459 4.80885L8.25481 2.03033C8.73305 1.83831 9.26695 1.83831 9.74519 2.03033L16.6654 4.80885C17.035 4.95725 17.4375 4.68512 17.4375 4.28686C17.4375 4.05712 17.2978 3.85046 17.0846 3.76486L9.7452 0.818006Z" fill="black"/>
</g>
</g>
<defs>
<clipPath id="clip0_1408_1611">
<rect width="18" height="18" fill="white"/>
</clipPath>
<clipPath id="clip1_1408_1611">
<rect width="18" height="18" fill="white"/>
</clipPath>
</defs>
</svg>
