<svg width="70" height="38" viewBox="0 0 70 38" fill="none" xmlns="http://www.w3.org/2000/svg">
<path d="M63.6364 12.6667H37.0682C35.7575 8.9632 33.3243 5.75581 30.1043 3.48702C26.8843 1.21823 23.0362 -0.000145013 19.0909 1.29455e-08C8.55909 1.29455e-08 0 8.51833 0 19C0 29.4817 8.55909 38 19.0909 38C23.0362 38.0001 26.8843 36.7818 30.1043 34.513C33.3243 32.2442 35.7575 29.0368 37.0682 25.3333H38.1818L44.5455 31.6667L50.9091 25.3333L57.2727 31.6667L70 18.8733L63.6364 12.6667ZM19.0909 28.5C13.8409 28.5 9.54545 24.225 9.54545 19C9.54545 13.775 13.8409 9.5 19.0909 9.5C24.3409 9.5 28.6364 13.775 28.6364 19C28.6364 24.225 24.3409 28.5 19.0909 28.5Z" fill="#4593FA"/>
</svg>
