<svg width="46" height="38" viewBox="0 0 46 38" fill="none" xmlns="http://www.w3.org/2000/svg">
<path d="M41.8182 33.7778H46V38H0V33.7778H4.18182V2.11111C4.18182 1.55121 4.40211 1.01424 4.79423 0.61833C5.18635 0.22242 5.71818 0 6.27273 0H27.1818C27.7364 0 28.2682 0.22242 28.6603 0.61833C29.0524 1.01424 29.2727 1.55121 29.2727 2.11111V33.7778H33.4545V12.6667H39.7273C40.2818 12.6667 40.8136 12.8891 41.2058 13.285C41.5979 13.6809 41.8182 14.2179 41.8182 14.7778V33.7778ZM12.5455 16.8889V21.1111H20.9091V16.8889H12.5455ZM12.5455 8.44444V12.6667H20.9091V8.44444H12.5455Z" fill="#4593FA"/>
</svg>
