<svg width="47" height="48" viewBox="0 0 47 48" fill="currentColor" xmlns="http://www.w3.org/2000/svg">
<g clip-path="url(#clip0_851_1552)">
<path d="M47.4168 21.718V44.4718C47.4163 45.1854 47.2229 45.8856 46.8571 46.4983C46.4913 47.111 45.9667 47.6134 45.3387 47.9523C44.7698 48.2603 44.1315 48.4175 43.4847 48.4091H31.6582C31.136 48.4091 30.6352 48.2017 30.266 47.8325C29.8968 47.4632 29.6894 46.9625 29.6894 46.4403V34.6261C29.6894 34.104 29.482 33.6032 29.1128 33.234C28.7436 32.8648 28.2428 32.6574 27.7207 32.6574H19.8457C19.3235 32.6574 18.8227 32.8648 18.4535 33.234C18.0843 33.6032 17.8769 34.104 17.8769 34.6261V46.4403C17.8769 46.9625 17.6695 47.4632 17.3003 47.8325C16.9311 48.2017 16.4303 48.4091 15.9082 48.4091H4.10476C3.54655 48.4105 2.99448 48.2926 2.48555 48.0633C1.97662 47.834 1.52258 47.4985 1.15385 47.0794C0.506576 46.3308 0.15549 45.3713 0.166767 44.3818V21.7178C0.167196 21.1692 0.282033 20.6267 0.503944 20.125C0.725854 19.6233 1.04996 19.1734 1.45556 18.804L21.1413 0.904881C21.8645 0.242528 22.8095 -0.124909 23.7901 -0.125C24.7707 -0.125091 25.7158 0.242171 26.439 0.904389L46.1282 18.8043C46.5337 19.1737 46.8577 19.6236 47.0796 20.1253C47.3015 20.627 47.4163 21.1695 47.4168 21.718Z" fill="#4593FA"/>
</g>
<defs>
<clipPath id="clip0_851_1552">
<rect width="47" height="48" fill="currentColor"/>
</clipPath>
</defs>
</svg>
