<svg width="64" height="50" viewBox="0 0 64 50" fill="none" xmlns="http://www.w3.org/2000/svg">
<path d="M12.1186 4.05709C12.6359 3.54766 13.3375 3.26147 14.069 3.26147C14.8005 3.26147 15.502 3.54766 16.0193 4.05709L24.8662 12.7718L20.9655 16.6142L19.5862 15.2555V19.5652H8.55173V15.2555L7.17242 16.6142L3.27173 12.7718L12.1186 4.05709ZM33.9503 17.644C33.433 17.1346 32.7315 16.8484 32 16.8484C31.2685 16.8484 30.567 17.1346 30.0497 17.644L12.9269 34.5109L16.8276 38.3533L19.5862 35.6359V46.7392H27.8621V39.9457C27.8621 38.8646 28.298 37.8279 29.074 37.0634C29.8501 36.299 30.9026 35.8696 32 35.8696C33.0975 35.8696 34.15 36.299 34.926 37.0634C35.702 37.8279 36.1379 38.8646 36.1379 39.9457V46.7392H44.4138V35.6359L47.1724 38.3533L51.0731 34.5109L33.9503 17.644ZM54.069 15.2555L56.8276 17.9728L60.7283 14.1305L50.5021 4.05709C49.9848 3.54766 49.2832 3.26147 48.5517 3.26147C47.8202 3.26147 47.1187 3.54766 46.6014 4.05709L36.3752 14.1305L40.2759 17.9728L43.0345 15.2555V22.2826H54.069V15.2555Z" fill="#4593FA"/>
</svg>
