<svg width="29" height="31" viewBox="0 0 29 31" fill="none" xmlns="http://www.w3.org/2000/svg">
<path d="M28.3039 19.1116L25.5407 16.6508C24.7407 15.9388 24.7407 14.7724 25.5407 14.0604L28.3039 11.598C29.1039 10.886 28.8911 10.2236 27.8303 10.1196L24.1663 9.77241C23.1071 9.67321 22.5343 8.75961 22.9007 7.74681L24.8447 2.33401C25.2095 1.31801 24.7631 0.950013 23.8543 1.51161L19.5327 4.18361C19.3185 4.31727 19.0793 4.40582 18.8297 4.44385C18.5801 4.48187 18.3254 4.46858 18.0811 4.40478C17.8368 4.34098 17.6081 4.22801 17.409 4.07278C17.2099 3.91756 17.0446 3.72334 16.9231 3.50201L15.3583 0.708413C14.8319 -0.232387 13.9631 -0.235587 13.4271 0.695613L11.9727 3.22361C11.4335 4.15961 10.1999 4.55641 9.23188 4.11321L6.67188 2.93881C5.69908 2.49081 4.95508 3.00601 5.01268 4.08441L5.15028 6.66841C5.20948 7.74681 4.41268 8.85561 3.38388 9.13401L0.911883 9.79641C-0.115317 10.0748 -0.304117 10.8844 0.495883 11.5964L3.25908 14.0588C4.05908 14.7708 4.05908 15.9372 3.25908 16.6492L0.495883 19.1116C-0.304117 19.8236 -0.0929167 20.5148 0.964683 20.6428L4.31668 21.0492C5.37428 21.1772 5.96308 22.1212 5.62548 23.1468L3.90708 28.3596C3.56948 29.3852 4.05108 29.782 4.97588 29.2476L8.91668 26.966C9.37634 26.7111 9.91455 26.6367 10.4261 26.7574C10.9377 26.8781 11.3859 27.1853 11.6831 27.6188L13.3183 30.0812C13.9135 30.9756 14.8079 30.9276 15.3023 29.9724L16.7407 27.1996C16.9802 26.7396 17.3898 26.3913 17.8824 26.229C18.375 26.0667 18.9115 26.1032 19.3775 26.3308L22.1519 27.718C23.1087 28.1932 23.8431 27.702 23.7855 26.6268L23.6463 24.0396C23.5903 22.9612 24.3839 21.8556 25.4159 21.5772L27.8847 20.9116C28.9151 20.6332 29.1039 19.8236 28.3039 19.1116ZM15.9999 21.7612H12.7999V18.5612H15.9999V21.7612ZM15.9999 16.9612H12.7999V8.96121H15.9999V16.9612Z" fill="#4593FA"/>
</svg>
