<svg width="30" height="30" viewBox="0 0 30 30" fill="none" xmlns="http://www.w3.org/2000/svg">
<path d="M24.9948 1.25801C23.9274 0.64158 22.7491 0.241435 21.5271 0.0804225C20.3051 -0.0805901 19.0634 0.000683266 17.8728 0.319602C16.6822 0.63852 15.566 1.18884 14.5881 1.93913C13.6102 2.68942 12.7897 3.62499 12.1734 4.69241L11.8206 5.30441C11.7013 5.51112 11.6689 5.75677 11.7307 5.98733C11.7925 6.21788 11.9433 6.41446 12.15 6.53381L19.0512 10.519L15.2694 17.1376C14.9804 17.1104 14.6903 17.0972 14.4 17.098C10.8234 17.098 7.713 19.123 5.6988 22.0534L5.7654 22.0498C6.35094 22.0263 6.92823 22.194 7.41011 22.5275C7.89198 22.8609 8.25228 23.3421 8.4366 23.8984C9.063 25.792 11.2842 25.6588 11.8458 24.0244C12.0282 23.492 12.3725 23.0299 12.8305 22.7027C13.2884 22.3755 13.8372 22.1997 14.4 22.1997C14.9628 22.1997 15.5116 22.3755 15.9695 22.7027C16.4275 23.0299 16.7718 23.492 16.9542 24.0244C17.514 25.6588 19.737 25.792 20.3634 23.8984C20.5513 23.3316 20.9217 22.8431 21.4167 22.5093C21.9118 22.1754 22.5035 22.0151 23.0994 22.0534C21.6198 19.8988 19.548 18.2356 17.1324 17.5048L20.61 11.419L26.847 15.019C27.0537 15.1384 27.2994 15.1707 27.5299 15.1089C27.7605 15.0471 27.957 14.8963 28.0764 14.6896L28.431 14.0776C29.6752 11.9219 30.0122 9.3603 29.3678 6.95619C28.7234 4.55208 27.1504 2.5024 24.9948 1.25801ZM6.7284 24.4636C6.66672 24.2784 6.54651 24.1183 6.38591 24.0074C6.22531 23.8965 6.03301 23.8409 5.838 23.8488C5.64299 23.8567 5.45584 23.9278 5.30476 24.0514C5.15368 24.1749 5.04686 24.3442 5.0004 24.5338C4.6944 25.783 4.1148 26.4688 3.4542 26.8684C2.763 27.2842 1.8828 27.4462 0.9 27.4462C0.661305 27.4462 0.432387 27.541 0.263604 27.7098C0.0948211 27.8786 0 28.1075 0 28.3462C0 28.5849 0.0948211 28.8138 0.263604 28.9826C0.432387 29.1514 0.661305 29.2462 0.9 29.2462C2.0484 29.2462 3.2994 29.0626 4.3848 28.4092C5.03181 28.0184 5.57708 27.4799 5.976 26.8378C8.1234 29.5756 12.3156 29.563 14.4 26.809C16.5186 29.6062 20.808 29.5756 22.923 26.7064C23.4973 27.4885 24.2463 28.1255 25.1104 28.5668C25.9745 29.008 26.9298 29.2413 27.9 29.248C28.1387 29.248 28.3676 29.1532 28.5364 28.9844C28.7052 28.8156 28.8 28.5867 28.8 28.348C28.8 28.1093 28.7052 27.8804 28.5364 27.7116C28.3676 27.5428 28.1387 27.448 27.9 27.448C26.1306 27.448 24.3666 26.296 23.7834 24.4744C23.7252 24.294 23.6115 24.1366 23.4585 24.0247C23.3056 23.9127 23.1212 23.8519 22.9317 23.8509C22.7421 23.8499 22.5571 23.9088 22.403 24.0191C22.2489 24.1295 22.1335 24.2857 22.0734 24.4654C20.916 27.9556 16.3854 27.9106 15.2514 24.6094C15.1906 24.4319 15.0758 24.2779 14.9232 24.1688C14.7705 24.0598 14.5876 24.0012 14.4 24.0012C14.2124 24.0012 14.0295 24.0598 13.8768 24.1688C13.7242 24.2779 13.6094 24.4319 13.5486 24.6094C12.4146 27.9106 7.884 27.9556 6.7266 24.4654" fill="#4593FA"/>
</svg>
