<svg width="62" height="62" viewBox="0 0 62 62" fill="none" xmlns="http://www.w3.org/2000/svg">
<g clip-path="url(#clip0_1026_1616)">
<path d="M21.5981 2.03916C15.4033 4.18818 10.0609 8.26709 6.3557 13.6768C2.65046 19.0864 0.777639 25.5417 1.01232 32.0945C1.24701 38.6472 3.57683 44.952 7.65957 50.0827C11.7423 55.2135 17.3628 58.8997 23.6954 60.6001C28.8294 61.9248 34.2083 61.983 39.3698 60.7696C44.0455 59.7194 48.3684 57.4728 51.9151 54.2499C55.6064 50.7932 58.2858 46.3957 59.6651 41.5303C61.1643 36.2393 61.4311 30.6751 60.4449 25.2649H31.6149V37.2242H48.3113C47.9776 39.1316 47.2626 40.9521 46.2089 42.5767C45.1552 44.2013 43.7846 45.5966 42.1792 46.6792C40.1403 48.0278 37.842 48.9352 35.4318 49.3432C33.0145 49.7927 30.535 49.7927 28.1177 49.3432C25.6677 48.8367 23.35 47.8255 21.3123 46.374C18.0386 44.0567 15.5806 40.7646 14.2888 36.9674C12.9753 33.0992 12.9753 28.9055 14.2888 25.0373C15.2083 22.3258 16.7283 19.8571 18.7354 17.8153C21.0323 15.4357 23.9402 13.7349 27.1401 12.8992C30.34 12.0636 33.7082 12.1255 36.8752 13.0781C39.3493 13.8375 41.6117 15.1645 43.4821 16.9531C45.3647 15.0802 47.2441 13.2024 49.1202 11.3198C50.089 10.3074 51.1449 9.34354 52.0991 8.30698C49.2441 5.65006 45.8928 3.58266 42.2373 2.22323C35.5805 -0.193854 28.2969 -0.258811 21.5981 2.03916Z" fill="white"/>
<path d="M21.5983 2.03908C28.2966 -0.26046 35.5802 -0.197213 42.2375 2.21829C45.8937 3.58696 49.2435 5.66432 52.0946 8.33111C51.1258 9.36767 50.1038 10.3364 49.1157 11.3439C47.2363 13.2201 45.3585 15.0898 43.4824 16.953C41.612 15.1644 39.3495 13.8374 36.8755 13.078C33.7095 12.122 30.3414 12.0566 27.1406 12.8888C23.9399 13.721 21.0302 15.4188 18.7308 17.7958C16.7237 19.8376 15.2037 22.3064 14.2843 25.0178L4.24316 17.2436C7.83727 10.1163 14.0602 4.66451 21.5983 2.03908Z" fill="#E33629"/>
<path d="M1.57913 24.9452C2.11882 22.2705 3.01483 19.6802 4.24319 17.2437L14.2843 25.0372C12.9707 28.9055 12.9707 33.0992 14.2843 36.9674C10.9389 39.5507 7.59184 42.147 4.24319 44.7562C1.16814 38.6352 0.230301 31.6611 1.57913 24.9452Z" fill="#F8BD00"/>
<path d="M31.6149 25.2603H60.4449C61.4311 30.6704 61.1643 36.2346 59.6651 41.5256C58.2858 46.391 55.6064 50.7885 51.9151 54.2453C48.6746 51.7168 45.4196 49.2078 42.1792 46.6793C43.7857 45.5957 45.157 44.1988 46.2107 42.5725C47.2644 40.9461 47.9789 39.1238 48.3114 37.2146H31.6149C31.6101 33.2331 31.6149 29.2467 31.6149 25.2603Z" fill="#587DBD"/>
<path d="M4.23828 44.756C7.58693 42.1727 10.934 39.5765 14.2794 36.9673C15.5737 40.7657 18.0352 44.058 21.3125 46.3738C23.3566 47.8186 25.6793 48.8215 28.1325 49.3188C30.5498 49.7683 33.0293 49.7683 35.4466 49.3188C37.8568 48.9109 40.1551 48.0034 42.1939 46.6548C45.4344 49.1832 48.6894 51.6923 51.9298 54.2207C48.3837 57.4453 44.0608 59.6936 39.3845 60.7453C34.2231 61.9586 28.8442 61.9005 23.7102 60.5757C19.6496 59.4916 15.8569 57.5803 12.5695 54.9618C9.09008 52.1994 6.24822 48.7181 4.23828 44.756Z" fill="#319F43"/>
</g>
<defs>
<clipPath id="clip0_1026_1616">
<rect width="62" height="62" fill="white"/>
</clipPath>
</defs>
</svg>
