<svg width="66" height="66" viewBox="0 0 66 66" fill="none" xmlns="http://www.w3.org/2000/svg">
<path d="M32.9742 4.91773C17.035 4.91128 4.125 17.8148 4.125 33.7412C4.125 46.3353 12.201 57.041 23.448 60.9726C24.9627 61.3529 24.7307 60.2765 24.7307 59.5417V54.5466C15.9844 55.5714 15.6299 49.7835 15.0434 48.8168C13.8574 46.7929 11.0537 46.2773 11.8916 45.3105C13.8832 44.2857 15.9135 45.5683 18.266 49.0423C19.9676 51.5625 23.2869 51.1371 24.9691 50.7181C25.3365 49.2035 26.1229 47.85 27.2057 46.7994C18.1436 45.1751 14.3666 39.6451 14.3666 33.0709C14.3666 29.8804 15.4172 26.9478 17.4797 24.5824C16.1648 20.683 17.6021 17.3443 17.7955 16.848C21.5402 16.5128 25.4332 19.5293 25.7361 19.7677C27.8631 19.1941 30.293 18.8912 33.0129 18.8912C35.7457 18.8912 38.182 19.207 40.3283 19.7871C41.0566 19.2328 44.666 16.6418 48.1465 16.9576C48.3334 17.4539 49.7385 20.7152 48.501 24.563C50.5893 26.9349 51.6527 29.8933 51.6527 33.0902C51.6527 39.6773 47.85 45.2138 38.7621 46.8123C39.5405 47.5778 40.1586 48.4907 40.5802 49.4977C41.0018 50.5048 41.2186 51.5857 41.2178 52.6775V59.9285C41.2693 60.5085 41.2178 61.0822 42.1846 61.0822C53.5992 57.2343 61.817 46.4513 61.817 33.7476C61.817 17.8148 48.9006 4.91773 32.9742 4.91773Z" fill="black"/>
</svg>
