<svg width="58" height="66" viewBox="0 0 58 66" fill="none" xmlns="http://www.w3.org/2000/svg">
<path d="M48.7562 62.6999C45.2037 66.1075 41.3249 65.5695 37.5912 63.9553C33.6399 62.3053 30.0149 62.2336 25.8462 63.9553C20.6262 66.1792 17.8712 65.5336 14.7537 62.6999C-2.93631 44.6575 -0.326313 17.1814 19.7562 16.1771C24.6499 16.4282 28.0574 18.8314 30.9212 19.0466C35.1987 18.1858 39.2949 15.7108 43.8624 16.0336C49.3362 16.464 53.4687 18.6162 56.1874 22.4901C44.8774 29.1977 47.5599 43.9401 57.9274 48.0651C55.8612 53.4455 53.1787 58.7901 48.7199 62.7358L48.7562 62.6999ZM30.5587 15.9619C30.0149 7.96294 36.5762 1.36294 44.1162 0.717285C45.1674 9.97163 35.6337 16.8586 30.5587 15.9619Z" fill="black"/>
</svg>
