<?xml version="1.0" standalone="no"?>
<!DOCTYPE svg PUBLIC "-//W3C//DTD SVG 20010904//EN"
 "http://www.w3.org/TR/2001/REC-SVG-20010904/DTD/svg10.dtd">
<svg version="1.0" xmlns="http://www.w3.org/2000/svg"
 width="399.000000pt" height="132.000000pt" viewBox="0 0 399.000000 132.000000"
 preserveAspectRatio="xMidYMid meet">

<g transform="translate(0.000000,132.000000) scale(0.100000,-0.100000)"
fill="#000000" stroke="none">
<path d="M480 1217 c-41 -34 -124 -102 -185 -152 -140 -114 -222 -184 -252
-214 l-23 -24 0 -397 c0 -372 1 -398 18 -413 17 -15 69 -17 540 -17 l521 0 15
22 c14 19 16 76 16 412 l0 389 -44 42 c-24 23 -102 90 -172 148 -71 58 -172
142 -224 186 -52 44 -104 81 -115 81 -11 0 -54 -28 -95 -63z m181 -169 c42
-35 133 -110 202 -167 l127 -104 -2 -324 -3 -323 -395 -1 c-217 0 -405 0 -417
0 l-23 1 0 319 0 319 38 33 c21 19 96 81 167 139 71 58 145 120 165 137 19 18
42 33 50 33 9 0 50 -28 91 -62z"/>
<path d="M465 847 c-131 -61 -165 -253 -64 -362 39 -42 39 -42 39 -127 0 -52
5 -89 12 -96 8 -8 50 -12 125 -12 134 0 133 0 132 114 -1 74 0 78 34 115 75
83 84 198 24 288 -65 98 -192 131 -302 80z m169 -128 c15 -12 32 -33 37 -46
12 -32 -4 -94 -31 -118 -16 -14 -20 -31 -20 -81 0 -77 -13 -114 -39 -114 -46
0 -51 8 -51 92 0 75 -2 83 -30 115 -33 37 -39 81 -16 122 29 52 104 66 150 30z"/>
<path d="M1390 1008 c-1 -2 -1 -127 -2 -278 l-1 -275 54 0 54 0 0 275 0 275
-52 3 c-29 2 -53 2 -53 0z"/>
<path d="M2820 731 l0 -281 51 0 c42 0 52 3 56 19 5 19 7 18 50 -5 71 -37 153
-27 221 27 77 61 95 208 36 292 -43 61 -104 89 -181 85 -47 -3 -68 -9 -86 -26
-13 -12 -26 -22 -30 -22 -3 0 -8 42 -9 93 l-3 92 -52 3 -53 3 0 -280z m279 35
c15 -8 32 -26 39 -41 14 -31 16 -104 2 -139 -22 -59 -128 -73 -178 -22 -19 18
-26 38 -30 79 -5 63 7 90 51 117 38 24 78 25 116 6z"/>
<path d="M3332 733 l3 -278 54 0 54 0 4 278 4 277 -60 0 -61 0 2 -277z"/>
<path d="M1742 850 c-39 -24 -52 -25 -52 -5 0 11 -12 15 -49 15 -27 0 -51 -4
-53 -10 -1 -5 -2 -98 0 -205 l3 -195 54 0 55 0 0 138 c0 132 1 140 23 160 23
22 80 30 104 14 24 -15 33 -66 33 -188 l0 -124 55 0 55 0 0 134 c0 126 2 137
23 160 32 38 77 44 110 14 26 -22 27 -26 28 -148 2 -167 -1 -160 65 -160 l54
0 0 148 c0 122 -4 154 -19 188 -39 87 -155 113 -242 55 l-43 -29 -33 29 c-28
24 -42 29 -86 29 -34 0 -63 -7 -85 -20z"/>
<path d="M2424 845 c-78 -39 -114 -102 -114 -197 0 -174 203 -264 362 -162 67
43 103 157 75 238 -41 124 -199 183 -323 121z m187 -101 c39 -38 48 -98 21
-151 -53 -103 -196 -76 -209 40 -7 59 11 103 51 129 42 26 99 19 137 -18z"/>
<path d="M3500 853 c0 -7 80 -213 100 -258 5 -11 21 -51 35 -89 25 -68 25 -69
7 -100 -15 -26 -25 -32 -61 -34 l-42 -3 3 -42 c3 -42 3 -42 45 -45 64 -5 130
34 161 93 19 36 172 431 179 463 5 21 2 22 -50 22 l-55 0 -20 -62 c-41 -124
-71 -203 -80 -206 -5 -1 -17 19 -25 45 -9 26 -31 86 -49 133 l-34 85 -57 3
c-31 2 -57 0 -57 -5z"/>
</g>
</svg>
