<?xml version="1.0" standalone="no"?>
<!DOCTYPE svg PUBLIC "-//W3C//DTD SVG 20010904//EN"
 "http://www.w3.org/TR/2001/REC-SVG-20010904/DTD/svg10.dtd">
<svg version="1.0" xmlns="http://www.w3.org/2000/svg"
  viewBox="0 0 384.000000 136.000000"
 preserveAspectRatio="xMidYMid meet">

<g transform="translate(0.000000,136.000000) scale(0.100000,-0.100000)"
fill="#000000" stroke="none">
<path d="M483 1302 c-319 -262 -463 -386 -470 -405 -4 -12 -7 -195 -5 -407 3
-376 4 -386 24 -407 l21 -23 503 0 c276 0 510 3 519 6 42 17 45 44 44 431 -1
202 -4 379 -8 393 -10 37 -516 460 -550 460 -11 0 -46 -22 -78 -48z m395 -372
l102 -85 0 -322 0 -323 -385 -1 c-212 -1 -392 -1 -400 -1 -60 0 -55 -31 -55
325 l1 322 135 110 c75 61 170 138 211 172 l75 62 107 -87 c58 -48 152 -125
209 -172z"/>
<path d="M494 936 c-91 -29 -151 -104 -161 -199 -7 -71 17 -143 62 -187 35
-34 35 -35 35 -120 0 -54 5 -91 12 -98 17 -17 222 -16 236 1 5 6 12 48 14 92
3 76 5 82 45 132 65 83 77 175 32 264 -47 93 -176 147 -275 115z m135 -152
c27 -22 31 -32 31 -73 0 -38 -6 -54 -26 -76 -22 -24 -26 -38 -28 -107 -2 -43
-8 -84 -13 -89 -6 -6 -23 -9 -39 -7 l-29 3 -3 84 c-3 77 -5 87 -32 118 -89
100 37 233 139 147z"/>
<path d="M2760 935 l0 -275 55 0 c42 0 55 3 55 15 0 17 25 21 35 5 13 -21 88
-32 140 -21 87 20 135 82 141 186 6 81 -19 149 -69 189 -31 25 -49 31 -100 34
-54 3 -67 0 -100 -22 -21 -14 -40 -26 -42 -26 -3 0 -5 40 -5 89 0 99 -1 101
-71 101 l-39 0 0 -275z m270 28 c36 -21 50 -52 50 -108 0 -35 -6 -52 -29 -77
-25 -28 -36 -33 -76 -33 -40 0 -51 5 -76 33 -48 54 -38 149 19 185 35 21 77
21 112 0z"/>
<path d="M3255 1198 c-3 -7 -4 -130 -3 -273 l3 -260 51 -3 c36 -2 53 1 55 10
2 7 2 130 -1 273 l-5 260 -48 3 c-32 2 -49 -1 -52 -10z"/>
<path d="M1370 1185 c0 -8 0 -129 -1 -267 l0 -253 56 -3 55 -3 0 271 0 270
-55 0 c-42 0 -55 -4 -55 -15z"/>
<path d="M1730 1059 c-13 -6 -32 -17 -41 -25 -15 -13 -17 -13 -22 6 -5 18 -12
21 -54 18 l-48 -3 -2 -175 c-2 -96 -1 -185 2 -197 5 -20 12 -23 55 -23 28 0
50 3 51 8 0 4 1 65 2 135 2 122 3 130 26 148 14 11 39 19 62 19 58 0 69 -29
69 -185 l0 -126 53 3 52 3 5 138 c6 156 11 167 80 167 62 0 69 -17 72 -170 l3
-135 55 0 55 0 0 151 c-1 144 -2 153 -25 188 -55 79 -164 90 -237 23 l-23 -20
-22 21 c-43 40 -113 53 -168 31z"/>
<path d="M2435 1066 c-5 -2 -22 -7 -38 -10 -78 -18 -146 -132 -133 -224 15
-114 93 -176 221 -176 127 -1 205 67 213 184 10 133 -60 214 -195 225 -32 3
-62 3 -68 1z m98 -97 c40 -21 57 -51 57 -106 0 -68 -35 -112 -95 -119 -100
-12 -158 102 -99 194 25 39 92 54 137 31z"/>
<path d="M3420 1052 c0 -4 31 -88 68 -187 38 -99 72 -191 75 -204 8 -31 -40
-81 -77 -81 -24 0 -26 -4 -26 -40 l0 -40 50 0 c90 0 128 33 173 150 78 202
147 388 147 398 0 8 -18 12 -48 12 l-49 0 -26 -67 c-14 -38 -36 -98 -49 -135
-13 -38 -26 -68 -29 -68 -4 0 -28 61 -54 135 l-48 135 -53 0 c-30 0 -54 -3
-54 -8z"/>
<path d="M1465 519 c-67 -25 -110 -89 -102 -152 8 -61 47 -93 147 -124 130
-39 140 -46 140 -94 0 -36 -3 -41 -35 -55 -54 -22 -109 -18 -144 12 -17 14
-31 32 -31 40 0 10 -12 14 -40 14 -34 0 -40 -3 -40 -21 0 -32 27 -72 68 -99
32 -21 49 -25 122 -25 73 0 91 4 124 24 61 38 84 118 51 181 -18 35 -63 60
-165 90 -89 26 -110 42 -110 85 0 41 18 56 73 62 55 6 94 -10 115 -47 14 -25
23 -30 54 -30 20 0 39 4 42 8 10 17 -33 88 -68 111 -42 27 -151 38 -201 20z"/>
<path d="M2810 429 l0 -101 -30 25 c-79 67 -208 36 -257 -63 -26 -51 -30 -124
-9 -173 41 -99 184 -139 266 -75 25 20 25 20 28 -1 3 -17 10 -21 43 -21 l39 0
0 255 0 255 -40 0 -40 0 0 -101z m-40 -139 c31 -29 32 -33 28 -95 -5 -78 -25
-104 -86 -112 -78 -10 -132 35 -132 112 0 75 47 125 116 125 33 0 49 -7 74
-30z"/>
<path d="M2992 518 c-20 -20 -14 -66 9 -79 25 -13 68 2 70 23 3 28 -4 53 -15
60 -17 12 -51 9 -64 -4z"/>
<path d="M1838 433 c-3 -44 -5 -48 -30 -51 -24 -3 -28 -8 -28 -33 0 -26 3 -29
30 -29 l30 0 0 -120 c0 -116 1 -121 28 -150 47 -53 161 -52 158 2 -1 19 -7 24
-36 26 -57 6 -60 13 -60 133 l0 109 50 0 c49 0 50 1 50 30 0 29 -1 30 -49 30
l-50 0 -3 48 -3 47 -42 3 -42 3 -3 -48z"/>
<path d="M2992 377 c-9 -11 -12 -63 -10 -183 l3 -169 43 -3 42 -3 0 180 c0
138 -3 181 -12 181 -7 0 -22 3 -34 6 -12 3 -26 -1 -32 -9z"/>
<path d="M3234 366 c-73 -34 -99 -79 -99 -172 0 -62 3 -75 29 -108 41 -54 104
-80 177 -73 104 9 169 72 177 172 13 152 -138 249 -284 181z m166 -74 c52 -52
52 -132 0 -183 -23 -23 -37 -29 -73 -29 -77 0 -128 66 -112 147 16 87 125 125
185 65z"/>
<path d="M2082 241 c3 -156 12 -179 79 -214 43 -23 131 -17 161 10 19 17 20
17 33 0 9 -13 23 -17 47 -15 l33 3 3 178 2 177 -45 0 -45 0 0 -119 c0 -110 -2
-122 -23 -146 -31 -36 -93 -44 -127 -17 -24 19 -25 27 -30 149 l-5 128 -43 3
-44 3 4 -140z"/>
</g>
</svg>
