<?xml version="1.0" standalone="no"?>
<!DOCTYPE svg PUBLIC "-//W3C//DTD SVG 20010904//EN"
 "http://www.w3.org/TR/2001/REC-SVG-20010904/DTD/svg10.dtd">
<svg version="1.0" xmlns="http://www.w3.org/2000/svg"
 width="224.000000pt" height="262.000000pt" viewBox="0 0 224.000000 262.000000"
 preserveAspectRatio="xMidYMid meet">

<g transform="translate(0.000000,262.000000) scale(0.100000,-0.100000)"
fill="#000000" stroke="none">
<path d="M1055 2588 c-22 -12 -27 -16 -430 -350 -148 -123 -341 -281 -427
-351 -86 -70 -166 -140 -177 -156 -21 -29 -21 -38 -21 -849 l0 -820 31 -31 31
-31 1048 0 1048 0 31 30 c17 17 33 45 36 63 3 18 5 383 3 813 l-3 780 -24 35
c-13 19 -82 82 -155 141 -188 153 -472 386 -689 567 -104 86 -196 159 -205
163 -26 10 -75 9 -97 -4z m426 -619 c195 -160 380 -313 412 -340 l57 -50 0
-654 c0 -586 -2 -653 -16 -659 -9 -3 -383 -6 -833 -6 -622 0 -820 3 -829 12
-9 9 -12 169 -12 659 l0 647 50 45 c28 25 128 107 223 183 94 76 257 209 360
296 122 102 197 158 212 158 14 0 143 -99 376 -291z"/>
<path d="M1000 1779 c-116 -23 -260 -131 -313 -235 -101 -200 -63 -444 93
-584 l39 -35 3 -188 3 -189 29 -24 28 -25 230 3 c292 4 268 -17 268 230 l0
180 60 65 c97 103 140 207 140 339 0 127 -48 244 -139 335 -115 115 -274 161
-441 128z m208 -288 c136 -69 147 -269 20 -357 l-38 -27 0 -171 c0 -94 -5
-178 -10 -186 -11 -18 -135 -19 -153 -1 -8 8 -13 74 -15 189 l-4 177 -43 38
c-111 96 -85 275 49 342 60 31 128 30 194 -4z"/>
</g>
</svg>
