<svg width="36" height="36" viewBox="0 0 36 36" fill="none" xmlns="http://www.w3.org/2000/svg">
<g clip-path="url(#clip0_1504_1588)">
<path d="M33.5902 23.2027L36.1916 20.6013L33.5902 18L27.0958 24.4943L11.5057 8.90422L18.0001 2.40985L15.3987 -0.191528L12.7973 2.40985L10.1959 -0.191528L6.30296 3.70145L3.70157 1.10007L1.10019 3.70145L3.70157 6.30283L-0.191406 10.1958L2.40998 12.7972L-0.191406 15.3986L2.40998 18L8.90434 11.5056L24.4944 27.0957L18.0001 33.5901L20.6015 36.1915L23.2029 33.5901L25.8042 36.1915L29.6972 32.2985L32.2986 34.8999L34.9 32.2985L32.2986 29.6971L36.1916 25.8041L33.5902 23.2027Z" fill="#4593FA"/>
</g>
<defs>
<clipPath id="clip0_1504_1588">
<rect width="36" height="36" fill="white"/>
</clipPath>
</defs>
</svg>
