<svg width="36" height="33" viewBox="0 0 36 33" fill="none" xmlns="http://www.w3.org/2000/svg">
<path d="M12.8 0C13.896 0 14.9016 0.412098 15.6336 1.17351C16.3656 1.93573 16.8 3.02393 16.8 4.33668C16.8 5.643 16.3712 6.95415 15.672 7.94656C14.976 8.93415 13.968 9.65854 12.8 9.65854C11.632 9.65854 10.624 8.93415 9.928 7.94656C9.2288 6.95415 8.8 5.643 8.8 4.33749C8.8 3.02393 9.2344 1.93573 9.9672 1.17351C10.6984 0.412098 11.704 0 12.8 0ZM4 7.2439C5.096 7.2439 6.1016 7.656 6.8336 8.41741C7.5656 9.17963 8 10.2678 8 11.5806C8 12.8869 7.5712 14.198 6.872 15.1905C6.176 16.178 5.168 16.9024 4 16.9024C2.832 16.9024 1.824 16.178 1.128 15.1905C0.4288 14.198 0 12.8861 0 11.5814C0 10.2678 0.4344 9.17963 1.1672 8.41741C1.8984 7.656 2.904 7.2439 4 7.2439ZM18 12.878C12.3008 12.878 7.5792 17.7596 6.0928 23.8807C5.4336 26.5964 6.4392 29.5092 8.9192 30.8896C10.8896 31.9875 13.8384 33 17.9992 33C22.1608 33 25.1096 31.9875 27.0808 30.8896C29.56 29.5092 30.5656 26.5964 29.9064 23.8815C28.4208 17.7596 23.6984 12.878 18 12.878ZM32 7.2439C30.904 7.2439 29.8984 7.656 29.1672 8.41741C28.4344 9.17963 28 10.2678 28 11.5806C28 12.8869 28.4288 14.198 29.128 15.1905C29.824 16.178 30.832 16.9024 32 16.9024C33.168 16.9024 34.176 16.178 34.872 15.1905C35.5712 14.198 36 12.8869 36 11.5814C36 10.2678 35.5656 9.17963 34.8336 8.41741C34.1016 7.656 33.096 7.2439 32 7.2439ZM23.2 0C22.104 0 21.0984 0.412098 20.3672 1.17351C19.6344 1.93573 19.2 3.02393 19.2 4.33668C19.2 5.643 19.6288 6.95415 20.328 7.94656C21.024 8.93415 22.032 9.65854 23.2 9.65854C24.368 9.65854 25.376 8.93415 26.072 7.94656C26.7712 6.95415 27.2 5.643 27.2 4.33749C27.2 3.02393 26.7656 1.93573 26.0336 1.17351C25.3016 0.412098 24.296 0 23.2 0Z" fill="#4593FA"/>
</svg>
