<svg width="36" height="36" viewBox="0 0 36 36" fill="none" xmlns="http://www.w3.org/2000/svg">
<g clip-path="url(#clip0_1504_1590)">
<path d="M12 18C11.4333 18 10.9587 17.8272 10.576 17.4816C10.1933 17.136 10.0013 16.7088 10 16.2C9.99866 15.6912 10.1907 15.264 10.576 14.9184C10.9613 14.5728 11.436 14.4 12 14.4C12.564 14.4 13.0393 14.5728 13.426 14.9184C13.8127 15.264 14.004 15.6912 14 16.2C13.996 16.7088 13.804 17.1366 13.424 17.4834C13.044 17.8302 12.5693 18.0024 12 18ZM24 18C23.4333 18 22.9587 17.8272 22.576 17.4816C22.1933 17.136 22.0013 16.7088 22 16.2C21.9987 15.6912 22.1907 15.264 22.576 14.9184C22.9613 14.5728 23.436 14.4 24 14.4C24.564 14.4 25.0393 14.5728 25.426 14.9184C25.8127 15.264 26.004 15.6912 26 16.2C25.996 16.7088 25.804 17.1366 25.424 17.4834C25.044 17.8302 24.5693 18.0024 24 18ZM4 36C2.9 36 1.95867 35.6478 1.176 34.9434C0.393333 34.239 0.00133333 33.3912 0 32.4V25.2C0 24.6 0.158666 24.0228 0.476 23.4684C0.793333 22.914 1.30133 22.4562 2 22.095V14.4C2 12.42 2.41667 10.5522 3.25 8.7966C4.08333 7.041 5.22533 5.511 6.676 4.2066C8.12666 2.9022 9.82666 1.875 11.776 1.125C13.7253 0.375 15.8 0 18 0C20.2 0 22.2753 0.375 24.226 1.125C26.1767 1.875 27.8767 2.9028 29.326 4.2084C30.7753 5.514 31.9167 7.044 32.75 8.7984C33.5833 10.5528 34 12.42 34 14.4V22.095C34.7 22.455 35.2087 22.9128 35.526 23.4684C35.8433 24.024 36.0013 24.6012 36 25.2V32.4C36 33.39 35.6087 34.2378 34.826 34.9434C34.0433 35.649 33.1013 36.0012 32 36H4ZM4 25.2V32.4H8V25.2H4ZM12 32.4H16V25.2H12V32.4ZM6 21.6H16V3.735C13.1333 4.155 10.75 5.3622 8.85 7.3566C6.95 9.351 6 11.6988 6 14.4V21.6ZM20 21.6H30V14.4C30 11.7 29.05 9.3528 27.15 7.3584C25.25 5.364 22.8667 4.1562 20 3.735V21.6ZM20 32.4H24V25.2H20V32.4ZM28 32.4H32V25.2H28V32.4Z" fill="#4593FA"/>
</g>
<defs>
<clipPath id="clip0_1504_1590">
<rect width="36" height="36" fill="white"/>
</clipPath>
</defs>
</svg>
