<svg width="35" height="36" viewBox="0 0 35 36" fill="none" xmlns="http://www.w3.org/2000/svg">
<path d="M34.8 33H33.6V7.5C33.6 7.10218 33.4736 6.72064 33.2485 6.43934C33.0235 6.15804 32.7183 6 32.4 6H26.4V1.5C26.4 1.10218 26.2736 0.720645 26.0485 0.43934C25.8235 0.158036 25.5183 0 25.2 0H10.8C10.4817 0 10.1765 0.158036 9.95147 0.43934C9.72643 0.720645 9.6 1.10218 9.6 1.5V12H3.6C3.28174 12 2.97652 12.158 2.75147 12.4393C2.52643 12.7206 2.4 13.1022 2.4 13.5V33H1.2C0.88174 33 0.576515 33.158 0.351472 33.4393C0.126428 33.7206 0 34.1022 0 34.5C0 34.8978 0.126428 35.2794 0.351472 35.5607C0.576515 35.842 0.88174 36 1.2 36H34.8C35.1183 36 35.4235 35.842 35.6485 35.5607C35.8736 35.2794 36 34.8978 36 34.5C36 34.1022 35.8736 33.7206 35.6485 33.4393C35.4235 33.158 35.1183 33 34.8 33ZM4.8 15H10.8C11.1183 15 11.4235 14.842 11.6485 14.5607C11.8736 14.2794 12 13.8978 12 13.5V3H24V7.5C24 7.89782 24.1264 8.27936 24.3515 8.56066C24.5765 8.84196 24.8817 9 25.2 9H31.2V33H21.6V25.5C21.6 25.1022 21.4736 24.7206 21.2485 24.4393C21.0235 24.158 20.7183 24 20.4 24H15.6C15.2817 24 14.9765 24.158 14.7515 24.4393C14.5264 24.7206 14.4 25.1022 14.4 25.5V33H4.8V15ZM19.2 33H16.8V27H19.2V33ZM15.6 7.5C15.6 7.10218 15.7264 6.72064 15.9515 6.43934C16.1765 6.15804 16.4817 6 16.8 6H19.2C19.5183 6 19.8235 6.15804 20.0485 6.43934C20.2736 6.72064 20.4 7.10218 20.4 7.5C20.4 7.89782 20.2736 8.27936 20.0485 8.56066C19.8235 8.84196 19.5183 9 19.2 9H16.8C16.4817 9 16.1765 8.84196 15.9515 8.56066C15.7264 8.27936 15.6 7.89782 15.6 7.5ZM15.6 13.5C15.6 13.1022 15.7264 12.7206 15.9515 12.4393C16.1765 12.158 16.4817 12 16.8 12H19.2C19.5183 12 19.8235 12.158 20.0485 12.4393C20.2736 12.7206 20.4 13.1022 20.4 13.5C20.4 13.8978 20.2736 14.2794 20.0485 14.5607C19.8235 14.842 19.5183 15 19.2 15H16.8C16.4817 15 16.1765 14.842 15.9515 14.5607C15.7264 14.2794 15.6 13.8978 15.6 13.5ZM24 13.5C24 13.1022 24.1264 12.7206 24.3515 12.4393C24.5765 12.158 24.8817 12 25.2 12H27.6C27.9183 12 28.2235 12.158 28.4485 12.4393C28.6736 12.7206 28.8 13.1022 28.8 13.5C28.8 13.8978 28.6736 14.2794 28.4485 14.5607C28.2235 14.842 27.9183 15 27.6 15H25.2C24.8817 15 24.5765 14.842 24.3515 14.5607C24.1264 14.2794 24 13.8978 24 13.5ZM12 19.5C12 19.8978 11.8736 20.2794 11.6485 20.5607C11.4235 20.842 11.1183 21 10.8 21H8.4C8.08174 21 7.77652 20.842 7.55147 20.5607C7.32643 20.2794 7.2 19.8978 7.2 19.5C7.2 19.1022 7.32643 18.7206 7.55147 18.4393C7.77652 18.158 8.08174 18 8.4 18H10.8C11.1183 18 11.4235 18.158 11.6485 18.4393C11.8736 18.7206 12 19.1022 12 19.5ZM12 25.5C12 25.8978 11.8736 26.2794 11.6485 26.5607C11.4235 26.842 11.1183 27 10.8 27H8.4C8.08174 27 7.77652 26.842 7.55147 26.5607C7.32643 26.2794 7.2 25.8978 7.2 25.5C7.2 25.1022 7.32643 24.7206 7.55147 24.4393C7.77652 24.158 8.08174 24 8.4 24H10.8C11.1183 24 11.4235 24.158 11.6485 24.4393C11.8736 24.7206 12 25.1022 12 25.5ZM15.6 19.5C15.6 19.1022 15.7264 18.7206 15.9515 18.4393C16.1765 18.158 16.4817 18 16.8 18H19.2C19.5183 18 19.8235 18.158 20.0485 18.4393C20.2736 18.7206 20.4 19.1022 20.4 19.5C20.4 19.8978 20.2736 20.2794 20.0485 20.5607C19.8235 20.842 19.5183 21 19.2 21H16.8C16.4817 21 16.1765 20.842 15.9515 20.5607C15.7264 20.2794 15.6 19.8978 15.6 19.5ZM24 19.5C24 19.1022 24.1264 18.7206 24.3515 18.4393C24.5765 18.158 24.8817 18 25.2 18H27.6C27.9183 18 28.2235 18.158 28.4485 18.4393C28.6736 18.7206 28.8 19.1022 28.8 19.5C28.8 19.8978 28.6736 20.2794 28.4485 20.5607C28.2235 20.842 27.9183 21 27.6 21H25.2C24.8817 21 24.5765 20.842 24.3515 20.5607C24.1264 20.2794 24 19.8978 24 19.5ZM24 25.5C24 25.1022 24.1264 24.7206 24.3515 24.4393C24.5765 24.158 24.8817 24 25.2 24H27.6C27.9183 24 28.2235 24.158 28.4485 24.4393C28.6736 24.7206 28.8 25.1022 28.8 25.5C28.8 25.8978 28.6736 26.2794 28.4485 26.5607C28.2235 26.842 27.9183 27 27.6 27H25.2C24.8817 27 24.5765 26.842 24.3515 26.5607C24.1264 26.2794 24 25.8978 24 25.5Z" fill="#4593FA"/>
</svg>
