<svg width="24" height="36" viewBox="0 0 24 36" fill="none" xmlns="http://www.w3.org/2000/svg">
<g clip-path="url(#clip0_1504_1603)">
<path d="M12 8.10279C11.02 8.10279 10.152 8.52035 9.598 9.18448C8.88112 10.0435 7.81442 10.611 6.63257 10.7622C5.45071 10.9134 4.25051 10.6359 3.296 9.9908C2.34149 9.34567 1.71085 8.38574 1.54281 7.32218C1.37478 6.25862 1.68312 5.17855 2.4 4.31957C3.91136 2.50612 6.01853 1.16665 8.42294 0.490937C10.8274 -0.184773 13.4071 -0.162453 15.7966 0.554734C18.1862 1.27192 20.2643 2.64761 21.7367 4.48687C23.209 6.32614 24.0008 8.53571 24 10.8025V32.4004C24 33.355 23.5786 34.2706 22.8284 34.9457C22.0783 35.6208 21.0609 36 20 36H4C2.93913 36 1.92172 35.6208 1.17157 34.9457C0.421427 34.2706 0 33.355 0 32.4004V17.1019C0 16.1472 0.421427 15.2316 1.17157 14.5566C1.92172 13.8815 2.93913 13.5023 4 13.5023H12C12.7956 13.5023 13.5587 13.2178 14.1213 12.7115C14.6839 12.2052 15 11.5185 15 10.8025C15 10.0865 14.6839 9.39982 14.1213 8.89352C13.5587 8.38723 12.7956 8.10279 12 8.10279ZM7.5 27.9008C7.10217 27.9008 6.72064 28.043 6.43934 28.2962C6.15804 28.5493 6 28.8927 6 29.2507C6 29.6087 6.15804 29.952 6.43934 30.2052C6.72064 30.4583 7.10217 30.6005 7.5 30.6005H16.5C16.8978 30.6005 17.2794 30.4583 17.5607 30.2052C17.842 29.952 18 29.6087 18 29.2507C18 28.8927 17.842 28.5493 17.5607 28.2962C17.2794 28.043 16.8978 27.9008 16.5 27.9008H7.5Z" fill="#4593FA"/>
</g>
<defs>
<clipPath id="clip0_1504_1603">
<rect width="24" height="36" fill="white"/>
</clipPath>
</defs>
</svg>
