<svg width="21" height="21" viewBox="0 0 21 21" fill="none" xmlns="http://www.w3.org/2000/svg">
<path d="M20.9926 5.99959C19.23 5.90261 17.4813 6.36077 15.9926 7.30959C15.6326 6.89959 15.2626 6.48959 14.8726 6.09959L14.5826 5.82959L14.7226 5.70959C15.2117 5.2898 15.5602 4.7301 15.7211 4.10603C15.882 3.48195 15.8477 2.82352 15.6226 2.21959C15.2975 1.53777 14.7815 0.965023 14.1371 0.570928C13.4927 0.176833 12.7477 -0.02165 11.9926 -0.000410567V1.99959C12.3484 1.99464 12.6991 2.0847 13.0085 2.26048C13.3179 2.43627 13.5748 2.69141 13.7526 2.99959C13.9226 3.39959 13.7526 3.83959 13.2826 4.30959L13.0526 4.51959C12.0096 3.65036 10.8645 2.91158 9.64263 2.31959C7.11263 1.17959 5.81263 1.70959 5.17263 2.31959C4.97799 2.51538 4.82194 2.74607 4.71263 2.99959L4.53263 3.52959L3.09263 7.86959C4.23263 10.7096 6.99263 15.7596 12.9926 17.9396L17.9926 16.2796C18.1612 16.2168 18.3098 16.1097 18.4226 15.9696L18.6326 15.7896C20.0626 14.3496 19.1426 11.5796 17.2226 8.88959C18.3627 8.22424 19.6754 7.91435 20.9926 7.99959V5.99959ZM17.2026 14.3696H17.1426C16.4526 14.7396 13.5926 13.7996 10.3526 10.5596C10.0126 10.2196 9.69263 9.88959 9.40263 9.55959C9.30263 9.44959 9.21263 9.32959 9.11263 9.20959L8.58263 8.56959L8.30263 8.17959C8.16263 7.98959 8.02263 7.79959 7.90263 7.61959C7.78263 7.43959 7.74263 7.35959 7.66263 7.22959C7.58263 7.09959 7.44263 6.88959 7.35263 6.71959C7.26263 6.54959 7.22263 6.47959 7.16263 6.34959C7.10263 6.21959 6.99263 6.06959 6.93263 5.92959C6.87263 5.78959 6.84263 5.69959 6.79263 5.58959C6.74263 5.47959 6.68263 5.31959 6.64263 5.18959C6.60263 5.05959 6.59263 4.99959 6.57263 4.89959C6.55263 4.79959 6.51263 4.65959 6.49263 4.55959C6.48783 4.47966 6.48783 4.39952 6.49263 4.31959C6.48322 4.23318 6.48322 4.146 6.49263 4.05959L6.60263 3.74959C6.77263 3.56959 7.51263 3.51959 8.83263 4.11959C9.71417 4.54449 10.5487 5.06064 11.3226 5.65959C10.9009 5.8451 10.4516 5.95997 9.99263 5.99959V7.99959C11.0552 7.94056 12.0863 7.61748 12.9926 7.05959L13.4826 7.51959C13.9226 7.94959 14.3126 8.37959 14.6726 8.78959C14.0689 9.81744 13.8294 11.0188 13.9926 12.1996L15.9926 11.8096C15.9244 11.4327 15.9244 11.0465 15.9926 10.6696C17.2826 12.6396 17.5226 14.0596 17.2026 14.3696ZM2.39263 9.99959L0.162632 16.6996C0.0016804 17.1915 -0.0405794 17.7145 0.0393079 18.2259C0.119195 18.7372 0.318962 19.2224 0.622277 19.6418C0.925593 20.0612 1.32385 20.4028 1.78448 20.6388C2.24512 20.8748 2.75507 20.9984 3.27263 20.9996C3.61288 20.9965 3.95046 20.9391 4.27263 20.8296L10.7926 18.6596C7.11276 16.7802 4.15897 13.735 2.39263 9.99959Z" fill="#4593FA"/>
</svg>
