<svg width="36" height="37" viewBox="0 0 36 37" fill="none" xmlns="http://www.w3.org/2000/svg">
<g clip-path="url(#clip0_1504_1592)">
<path d="M6.00062 6.00399C6.00062 5.4732 6.21133 4.96416 6.58639 4.58884C6.96144 4.21351 7.47013 4.00266 8.00054 4.00266C8.53096 4.00266 9.03964 4.21351 9.4147 4.58884C9.78976 4.96416 10.0005 5.4732 10.0005 6.00399V18.064C11.2644 18.1841 12.6004 18.4483 14.0003 18.8946V16.0106H25.9998V22.9853C27.3627 22.9665 28.7136 22.7266 29.9997 22.2748V6.00399C29.9997 4.41163 29.3676 2.88449 28.2424 1.75853C27.1172 0.632562 25.5912 0 23.9999 0C22.4087 0 20.8826 0.632562 19.7574 1.75853C18.6323 2.88449 18.0002 4.41163 18.0002 6.00399C18.0002 6.53478 18.2109 7.04382 18.5859 7.41914C18.961 7.79447 19.4697 8.00532 20.0001 8.00532C20.5305 8.00532 21.0392 7.79447 21.4142 7.41914C21.7893 7.04382 22 6.53478 22 6.00399C22 5.4732 22.2107 4.96416 22.5858 4.58884C22.9608 4.21351 23.4695 4.00266 23.9999 4.00266C24.5303 4.00266 25.039 4.21351 25.4141 4.58884C25.7891 4.96416 25.9998 5.4732 25.9998 6.00399V12.008H14.0003V6.00399C14.0003 4.41163 13.3682 2.88449 12.243 1.75853C11.1178 0.632562 9.59178 0 8.00054 0C6.40931 0 4.88325 0.632562 3.75807 1.75853C2.6329 2.88449 2.00078 4.41163 2.00078 6.00399C2.00078 6.53478 2.21149 7.04382 2.58654 7.41914C2.9616 7.79447 3.47029 8.00532 4.0007 8.00532C4.53111 8.00532 5.0398 7.79447 5.41486 7.41914C5.78992 7.04382 6.00062 6.53478 6.00062 6.00399ZM7.18458 24.066C5.13666 24.3182 3.78471 25.1607 3.21273 25.599C2.79053 25.9207 2.25792 26.0613 1.73209 25.99C1.20626 25.9187 0.730273 25.6413 0.408844 25.2188C0.0874141 24.7963 -0.0531294 24.2633 0.0181316 23.7371C0.0893926 23.2109 0.366621 22.7346 0.788829 22.4129C1.77279 21.6644 3.77471 20.4536 6.6946 20.0914C9.64448 19.7291 13.3663 20.2515 17.7202 22.7271C25.2959 27.038 31.3916 24.034 32.9796 23.0933C33.4352 22.8335 33.9746 22.7632 34.4815 22.8975C34.9885 23.0318 35.4224 23.36 35.6899 23.8113C35.9574 24.2627 36.037 24.8012 35.9116 25.3107C35.7862 25.8203 35.4658 26.2602 35.0195 26.5356C32.8656 27.8125 25.1219 31.543 15.7422 26.2074C12.0704 24.118 9.2065 23.8158 7.18458 24.066ZM3.21273 33.6023C3.78671 33.164 5.13666 32.3215 7.18458 32.0693C9.2045 31.8191 12.0704 32.1213 15.7442 34.2107C25.1239 39.5463 32.8636 35.8158 35.0195 34.541C35.2455 34.4069 35.4429 34.2296 35.6004 34.0193C35.7579 33.8089 35.8725 33.5695 35.9376 33.3148C36.0027 33.0601 36.017 32.7951 35.9798 32.5349C35.9425 32.2746 35.8544 32.0243 35.7205 31.7981C35.5865 31.572 35.4094 31.3744 35.1991 31.2168C34.9889 31.0591 34.7497 30.9445 34.4952 30.8793C34.2407 30.8142 33.9758 30.7999 33.7158 30.8372C33.4557 30.8744 33.2056 30.9626 32.9796 31.0967C31.3916 32.0373 25.2959 35.0413 17.7202 30.7304C13.3663 28.2548 9.64448 27.7324 6.6946 28.0967C3.77471 28.4569 1.77479 29.6677 0.788829 30.4182C0.383222 30.7454 0.121228 31.2181 0.0585997 31.7357C-0.00402877 32.2533 0.137652 32.7749 0.453494 33.1895C0.769335 33.6042 1.2344 33.8791 1.74973 33.9558C2.26505 34.0326 2.78995 33.905 3.21273 33.6003" fill="#4593FA"/>
</g>
<defs>
<clipPath id="clip0_1504_1592">
<rect width="36" height="37" fill="white"/>
</clipPath>
</defs>
</svg>
