<svg width="36" height="43" viewBox="0 0 36 43" fill="none" xmlns="http://www.w3.org/2000/svg">
<path d="M0 9.14894V40.0174C0 41.3623 1.14185 43 2.54769 43H33.2105C34.6126 43 36 41.3623 36 40.0174V9.14894H0ZM17.9631 33.6461C12.5538 33.6461 8.16831 29.4431 8.16831 24.2566C8.16831 19.07 12.5538 14.867 17.9631 14.867C23.3723 14.867 27.7578 19.07 27.7578 24.2566C27.7578 29.444 23.3723 33.6461 17.9631 33.6461ZM33.2105 0H2.54769C1.14185 0 0 0.945085 0 2.29181V7.31915H36V2.29181C36 0.945085 34.6126 0 33.2105 0ZM12 5.48936H1.84615V1.82979H12V5.48936ZM29.6732 5.23319C28.5203 5.23319 27.5889 4.33751 27.5889 3.2314C27.5889 2.12713 28.5203 1.23145 29.6732 1.23145C30.8262 1.23145 31.7603 2.12713 31.7603 3.2314C31.7594 4.3366 30.8262 5.23319 29.6732 5.23319Z" fill="#4593FA"/>
</svg>
