<svg width="36" height="36" viewBox="0 0 36 36" fill="none" xmlns="http://www.w3.org/2000/svg">
<g clip-path="url(#clip0_1505_1615)">
<path d="M27 30.75V30M27 30.75C27 31.9435 26.5259 33.0881 25.682 33.932C24.8381 34.7759 23.6935 35.25 22.5 35.25H18.75V34.875L19.08 34.3395C20.826 31.5022 21.7503 28.236 21.75 24.9045V24.75H27M27 30.75C27 31.9435 27.4741 33.0881 28.318 33.932C29.1619 34.7759 30.3065 35.25 31.5 35.25H35.25V34.875L34.92 34.3395C33.174 31.5022 32.2497 28.236 32.25 24.9045V24.75H27M27 24.75V0M5.25 20.25V16.5C5.25 15.5054 5.64509 14.5516 6.34835 13.8483C7.05161 13.1451 8.00544 12.75 9 12.75C9.99456 12.75 10.9484 13.1451 11.6517 13.8483C12.3549 14.5516 12.75 15.5054 12.75 16.5V20.25M3.75 35.25V33.705C3.74962 29.2892 2.77441 24.9279 0.894 20.9325L0.75 20.625V20.25H17.25V20.625L17.106 20.9325C15.2256 24.9279 14.2504 29.2892 14.25 33.705V35.25H3.75Z" stroke="#4593FA" stroke-width="2" stroke-linecap="round" stroke-linejoin="round"/>
</g>
<defs>
<clipPath id="clip0_1505_1615">
<rect width="36" height="36" fill="white"/>
</clipPath>
</defs>
</svg>
