<svg width="23" height="17" viewBox="0 0 23 17" fill="none" xmlns="http://www.w3.org/2000/svg">
<g clip-path="url(#clip0_1408_1608)">
<path d="M19.4488 4.77973L19.4798 3.00222C19.5054 1.53578 18.2891 0.314361 16.7768 0.287965L13.1107 0.223973C12.405 0.211654 11.7587 0.467082 11.2655 0.885204C10.7872 0.450124 10.1503 0.172299 9.44457 0.15998L5.77846 0.0959882C4.26619 0.0695915 3.00794 1.24781 2.98234 2.71425L2.95131 4.49176C1.43904 4.46537 0.180788 5.64358 0.155191 7.11003L0.0776246 11.5538C0.0520278 13.0202 1.2684 14.2417 2.78067 14.2681L2.74964 16.0456L4.58269 16.0776L4.61372 14.3L17.4451 14.524L17.4141 16.3015L19.2471 16.3335L19.2782 14.556C20.7904 14.5824 22.0487 13.4042 22.0743 11.9377L22.1518 7.49398C22.1774 6.02754 20.9611 4.80612 19.4488 4.77973ZM13.0796 2.00148L16.7458 2.06547C17.2498 2.07427 17.6553 2.48141 17.6468 2.97022L17.6036 5.44096C17.036 5.92001 16.6663 6.61589 16.6527 7.39799L16.6217 9.1755L12.039 9.09551L12.1476 2.87424C12.1561 2.38542 12.5756 1.99268 13.0796 2.00148ZM4.81539 2.74625C4.82392 2.25744 5.24334 1.8647 5.74743 1.8735L9.41354 1.93749C9.91763 1.94629 10.3231 2.35342 10.3146 2.84224L10.206 9.06351L5.62333 8.98352L5.65435 7.20602C5.668 6.42391 5.32281 5.71556 4.77227 5.21699L4.81539 2.74625ZM20.2412 11.9058C20.2327 12.3946 19.8133 12.7873 19.3092 12.7785L2.81169 12.4905C2.3076 12.4817 1.90215 12.0746 1.91068 11.5858L1.98825 7.14202C1.99678 6.65321 2.4162 6.26047 2.92029 6.26927C3.42438 6.27807 3.82983 6.68521 3.8213 7.17402L3.75925 10.729L18.4237 10.985L18.4857 7.42999C18.4943 6.94117 18.9137 6.54843 19.4178 6.55723C19.9219 6.56603 20.3273 6.97317 20.3188 7.46199L20.2412 11.9058Z" fill="black"/>
</g>
<defs>
<clipPath id="clip0_1408_1608">
<rect width="22" height="16" fill="white" transform="translate(0.279297) rotate(1)"/>
</clipPath>
</defs>
</svg>
