<svg width="66" height="66" viewBox="0 0 66 66" fill="none" xmlns="http://www.w3.org/2000/svg">
<path d="M3.4375 33C3.4375 16.6733 16.6733 3.4375 33 3.4375C49.3267 3.4375 62.5625 16.6733 62.5625 33C62.5625 49.3267 49.3267 62.5625 33 62.5625C16.6733 62.5625 3.4375 49.3267 3.4375 33ZM33 7.5625C26.2536 7.5625 19.7834 10.2425 15.013 15.013C10.2425 19.7834 7.5625 26.2536 7.5625 33C7.5625 39.7464 10.2425 46.2166 15.013 50.987C19.7834 55.7575 26.2536 58.4375 33 58.4375C39.7464 58.4375 46.2166 55.7575 50.987 50.987C55.7575 46.2166 58.4375 39.7464 58.4375 33C58.4375 26.2536 55.7575 19.7834 50.987 15.013C46.2166 10.2425 39.7464 7.5625 33 7.5625Z" fill="black"/>
<path opacity="0.5" d="M33 21.3126C29.48 21.3126 26.8125 24.0626 26.8125 27.5001C26.8125 30.9376 29.48 33.6876 33 33.6876C36.52 33.6876 39.1875 30.9376 39.1875 27.5001C39.1875 24.0626 36.52 21.3126 33 21.3126ZM22.6875 27.5001C22.6766 26.1428 22.9358 24.7968 23.4501 23.5407C23.9645 22.2846 24.7237 21.1434 25.6835 20.1836C26.6433 19.2238 27.7845 18.4646 29.0407 17.9502C30.2968 17.4358 31.6427 17.1766 33 17.1876C34.3574 17.1766 35.7033 17.4358 36.9594 17.9502C38.2156 18.4646 39.3568 19.2238 40.3166 20.1836C41.2764 21.1434 42.0356 22.2846 42.5499 23.5407C43.0643 24.7968 43.3235 26.1428 43.3125 27.5001C43.3235 28.8574 43.0643 30.2033 42.5499 31.4595C42.0356 32.7156 41.2764 33.8568 40.3166 34.8166C39.3568 35.7764 38.2156 36.5356 36.9594 37.05C35.7033 37.5643 34.3574 37.8236 33 37.8126C31.6427 37.8236 30.2968 37.5643 29.0407 37.05C27.7845 36.5356 26.6433 35.7764 25.6835 34.8166C24.7237 33.8568 23.9645 32.7156 23.4501 31.4595C22.9358 30.2033 22.6766 28.8574 22.6875 27.5001ZM40.4388 43.6178C40.2264 43.6758 40.0254 43.7697 39.8448 43.8956C38.467 44.8251 36.0663 46.0626 33 46.0626C29.9338 46.0626 27.533 44.8251 26.1553 43.8956C25.9744 43.7707 25.7735 43.6777 25.5613 43.6206C25.4695 43.5922 25.3718 43.5884 25.278 43.6096C23.375 44.2036 21.3758 45.2073 19.855 46.7913C18.3755 48.3313 17.259 50.5038 17.1875 53.6718C17.1814 53.9427 17.122 54.2097 17.0127 54.4576C16.9033 54.7055 16.7463 54.9294 16.5504 55.1166C16.3545 55.3037 16.1237 55.4505 15.8711 55.5485C15.6186 55.6465 15.3491 55.6937 15.0783 55.6876C14.8074 55.6815 14.5404 55.622 14.2926 55.5127C14.0447 55.4034 13.8208 55.2463 13.6336 55.0504C13.4464 54.8546 13.2996 54.6238 13.2016 54.3712C13.1037 54.1186 13.0564 53.8492 13.0625 53.5783C13.1588 49.3708 14.6933 46.2083 16.8795 43.9341C19.03 41.6983 21.7195 40.3976 24.0515 39.6716C25.773 39.1353 27.3955 39.7541 28.4625 40.4773C29.4525 41.1428 31.0475 41.9376 33 41.9376C34.9525 41.9376 36.5475 41.1401 37.5375 40.4773C38.6045 39.7568 40.227 39.1353 41.9485 39.6716C44.2833 40.3976 46.97 41.6983 49.1205 43.9341C51.3068 46.2111 52.8413 49.3681 52.9375 53.5783C52.9437 53.8492 52.8964 54.1186 52.7984 54.3712C52.7005 54.6238 52.5537 54.8546 52.3665 55.0504C52.1793 55.2463 51.9554 55.4034 51.7075 55.5127C51.4596 55.622 51.1926 55.6815 50.9218 55.6876C50.6509 55.6937 50.3815 55.6465 50.1289 55.5485C49.8764 55.4505 49.6456 55.3037 49.4497 55.1166C49.2538 54.9294 49.0968 54.7055 48.9874 54.4576C48.8781 54.2097 48.8187 53.9427 48.8125 53.6718C48.741 50.5066 47.6245 48.3313 46.145 46.7913C44.6243 45.2073 42.625 44.2036 40.722 43.6096C40.6285 43.5876 40.5309 43.5904 40.4388 43.6178Z" fill="black"/>
</svg>
