<svg width="90" height="90" viewBox="0 0 90 90" fill="none" xmlns="http://www.w3.org/2000/svg">
<path d="M65.9998 19.9125L44.8123 8.51255C42.5623 7.31255 39.8998 7.31255 37.6498 8.51255L16.4998 19.9125C14.9623 20.775 13.9873 22.425 13.9873 24.225C13.9873 26.0625 14.9248 27.7125 16.4998 28.5375L37.6873 39.9375C38.8123 40.5375 40.0498 40.8376 41.2498 40.8376C42.4498 40.8376 43.7248 40.5375 44.8123 39.9375L65.9998 28.5375C67.5373 27.7125 68.5123 26.0625 68.5123 24.225C68.5123 22.425 67.5373 20.775 65.9998 19.9125Z" fill="#FFC350"/>
<path d="M34.2 43.9126L14.5125 34.0876C12.975 33.3001 11.25 33.4126 9.7875 34.2751C8.3625 35.1751 7.5 36.7126 7.5 38.4001V57.0001C7.5 60.2251 9.3 63.1126 12.1875 64.5751L31.875 74.4001C32.55 74.7376 33.3 74.9251 34.05 74.9251C34.9125 74.9251 35.8125 74.6626 36.6 74.2126C38.025 73.3126 38.8875 71.7751 38.8875 70.0876V51.4876C38.85 48.2626 37.05 45.3751 34.2 43.9126Z" fill="#FFC350"/>
<path d="M74.9999 38.4001V47.6251C73.1999 47.1001 71.2874 46.8751 69.3749 46.8751C64.2749 46.8751 59.2874 48.6376 55.3499 51.7876C49.9499 56.0251 46.8749 62.4376 46.8749 69.3751C46.8749 71.2126 47.0999 73.0501 47.5874 74.8126C47.0249 74.7376 46.4624 74.5126 45.9374 74.1751C44.5124 73.3126 43.6499 71.7751 43.6499 70.0876V51.4876C43.6499 48.2626 45.4499 45.3751 48.2999 43.9126L67.9874 34.0876C69.5249 33.3001 71.2499 33.4126 72.7124 34.2751C74.1374 35.1751 74.9999 36.7126 74.9999 38.4001Z" fill="#FFC350"/>
<path d="M82.425 58.7624C79.35 54.9749 74.6625 52.575 69.375 52.575C65.4 52.575 61.725 53.9625 58.8375 56.2875C54.9375 59.3625 52.5 64.125 52.5 69.45C52.5 72.6 53.4 75.6 54.9375 78.15C55.95 79.8375 57.225 81.2999 58.725 82.5H58.7625C61.65 84.8999 65.3625 86.325 69.375 86.325C73.65 86.325 77.5125 84.7499 80.475 82.1249C81.7875 80.9999 82.9125 79.65 83.8125 78.15C85.35 75.6 86.25 72.6 86.25 69.45C86.25 65.4 84.825 61.65 82.425 58.7624ZM77.85 67.3499L68.85 75.6749C68.325 76.1625 67.6125 76.4249 66.9375 76.4249C66.225 76.4249 65.5125 76.1624 64.95 75.5999L60.7875 71.4374C59.7 70.3499 59.7 68.5499 60.7875 67.4624C61.875 66.3749 63.675 66.3749 64.7625 67.4624L67.0125 69.7125L74.025 63.225C75.15 62.175 76.95 62.2499 78 63.3749C79.0875 64.5374 79.0125 66.2999 77.85 67.3499Z" fill="#FFC350"/>
</svg>
