<svg width="22" height="14" viewBox="0 0 22 14" fill="none" xmlns="http://www.w3.org/2000/svg">
<path d="M20.68 11.88H6.93924L7.23272 11.4039C7.35856 11.1998 7.39552 10.9529 7.33524 10.7206L7.0488 9.61796L19.8013 8.95532C20.2849 8.93068 20.68 8.514 20.68 8.03V2.2C20.68 1.716 20.284 1.32 19.8 1.32H4.89236L4.72032 0.65868C4.67131 0.470064 4.56107 0.303052 4.4069 0.183843C4.25274 0.0646344 4.06336 -2.78003e-05 3.86848 8.96616e-09H0.88C0.64661 8.96616e-09 0.422778 0.092714 0.257746 0.257746C0.092714 0.422778 0 0.646609 0 0.88C0 1.11339 0.092714 1.33722 0.257746 1.50225C0.422778 1.66729 0.64661 1.76 0.88 1.76H3.18824L5.53784 10.7998L4.61384 12.298C4.53174 12.4313 4.4867 12.5842 4.48338 12.7407C4.48005 12.8973 4.51856 13.0519 4.59492 13.1886C4.67117 13.3253 4.78252 13.4392 4.91749 13.5186C5.05246 13.5979 5.20615 13.6399 5.36272 13.64H20.68C20.9134 13.64 21.1372 13.5473 21.3023 13.3823C21.4673 13.2172 21.56 12.9934 21.56 12.76C21.56 12.5266 21.4673 12.3028 21.3023 12.1377C21.1372 11.9727 20.9134 11.88 20.68 11.88Z" fill="white"/>
</svg>
