<svg width="14" height="14" viewBox="0 0 14 14" fill="none" xmlns="http://www.w3.org/2000/svg">
<mask id="mask0_1200_1598" style="mask-type:luminance" maskUnits="userSpaceOnUse" x="0" y="0" width="14" height="14">
<path d="M6.83333 1L5.08333 2.75H2.75V5.08333L1 6.83333L2.75 8.58333V10.9167H5.08333L6.83333 12.6667L8.58333 10.9167H10.9167V8.58333L12.6667 6.83333L10.9167 5.08333V2.75H8.58333L6.83333 1Z" fill="white" stroke="white" stroke-width="2" stroke-linejoin="round"/>
<path d="M6.83325 8.58337C7.29738 8.58337 7.7425 8.399 8.07069 8.07081C8.39888 7.74262 8.58325 7.2975 8.58325 6.83337C8.58325 6.36925 8.39888 5.92413 8.07069 5.59594C7.7425 5.26775 7.29738 5.08337 6.83325 5.08337C6.36912 5.08337 5.924 5.26775 5.59581 5.59594C5.26763 5.92413 5.08325 6.36925 5.08325 6.83337C5.08325 7.2975 5.26763 7.74262 5.59581 8.07081C5.924 8.399 6.36912 8.58337 6.83325 8.58337Z" fill="black" stroke="black" stroke-width="2" stroke-linejoin="round"/>
</mask>
<g mask="url(#mask0_1200_1598)">
<path d="M-0.166748 -0.166626H13.8333V13.8334H-0.166748V-0.166626Z" fill="black"/>
</g>
</svg>
