<svg width="102" height="102" viewBox="0 0 102 102" fill="none" xmlns="http://www.w3.org/2000/svg">
<path d="M72.25 93.5H29.75C28.0075 93.5 26.5625 92.055 26.5625 90.3125C26.5625 88.57 28.0075 87.125 29.75 87.125H72.25C73.9925 87.125 75.4375 88.57 75.4375 90.3125C75.4375 92.055 73.9925 93.5 72.25 93.5Z" fill="#FFC350"/>
<path d="M86.4875 23.46L69.4875 35.615C67.235 37.23 64.005 36.2525 63.0275 33.66L54.995 12.24C53.635 8.54254 48.4075 8.54254 47.0475 12.24L38.9725 33.6175C37.995 36.2525 34.8075 37.23 32.555 35.5725L15.555 23.4175C12.155 21.0375 7.64996 24.395 9.05246 28.3475L26.7325 77.86C27.3275 79.56 28.9425 80.665 30.7275 80.665H71.23C73.015 80.665 74.63 79.5175 75.225 77.86L92.905 28.3475C94.35 24.395 89.845 21.0375 86.4875 23.46ZM61.625 62.6875H40.375C38.6325 62.6875 37.1875 61.2425 37.1875 59.5C37.1875 57.7575 38.6325 56.3125 40.375 56.3125H61.625C63.3675 56.3125 64.8125 57.7575 64.8125 59.5C64.8125 61.2425 63.3675 62.6875 61.625 62.6875Z" fill="#FFC350"/>
</svg>
