<svg width="21" height="21" viewBox="0 0 21 21" fill="none" xmlns="http://www.w3.org/2000/svg">
<path d="M14.5858 1.10063C15.2903 0.396006 16.246 9.84658e-05 17.2424 1.83645e-08C18.2389 -9.84291e-05 19.1946 0.39562 19.8993 1.1001C20.604 1.80458 20.9999 2.76012 21 3.75651C21.0001 4.75289 20.6043 5.70851 19.8998 6.41313L18.9632 7.3507L13.6503 2.03714L14.5858 1.10063ZM12.5373 3.15109L2.03736 13.6491C1.61058 14.0754 1.31067 14.6119 1.17111 15.1987L0.0213732 20.0304C-0.00975737 20.1612 -0.00683866 20.2979 0.0298511 20.4273C0.0665408 20.5567 0.135778 20.6746 0.23096 20.7697C0.326142 20.8647 0.444094 20.9338 0.573567 20.9704C0.703041 21.0069 0.839718 21.0097 0.970565 20.9784L5.80158 19.8277C6.38884 19.6884 6.92578 19.3885 7.35241 18.9616L17.8502 8.46359L12.5373 3.15109Z" fill="#0A1724"/>
</svg>
