<svg width="14" height="13" viewBox="0 0 14 13" fill="none" xmlns="http://www.w3.org/2000/svg">
<g clip-path="url(#clip0_1167_1592)">
<path d="M14 4.10526C14 3.98111 13.9654 3.8593 13.8999 3.75289L12.0036 0.663684C11.8787 0.461733 11.7027 0.294602 11.4926 0.178368C11.2824 0.0621343 11.0452 0.000708522 10.8038 0H3.1962C2.7076 0 2.2477 0.254526 1.9964 0.664368L0.1001 3.75289C0.0346429 3.8593 4.02017e-05 3.98111 0 4.10526C0 4.79289 0.2702 5.41484 0.7 5.89653V12.3158C0.7 12.4973 0.77375 12.6713 0.905025 12.7996C1.0363 12.9279 1.21435 13 1.4 13H7C7.18565 13 7.3637 12.9279 7.49498 12.7996C7.62625 12.6713 7.7 12.4973 7.7 12.3158V8.89474H10.5V12.3158C10.5 12.4973 10.5737 12.6713 10.705 12.7996C10.8363 12.9279 11.0143 13 11.2 13H12.6C12.7857 13 12.9637 12.9279 13.095 12.7996C13.2262 12.6713 13.3 12.4973 13.3 12.3158V5.89653C13.7298 5.41484 14 4.79289 14 4.10526ZM12.5888 4.277C12.546 4.60753 12.3814 4.91145 12.1257 5.13176C11.87 5.35208 11.5409 5.47365 11.2 5.47368C10.4279 5.47368 9.8 4.85995 9.8 4.10526C9.8 4.05874 9.7825 4.01768 9.7727 3.97389L9.7867 3.97116L9.254 1.36842H10.8038L12.5888 4.277ZM5.6049 4.14974L6.1733 1.36842H7.826L8.3951 4.14974C8.3706 4.88389 7.756 5.47368 7 5.47368C6.244 5.47368 5.6294 4.88389 5.6049 4.14974ZM3.1962 1.36842H4.746L4.214 3.97116L4.228 3.97389C4.2175 4.01768 4.2 4.05874 4.2 4.10526C4.2 4.85995 3.5721 5.47368 2.8 5.47368C2.45915 5.47365 2.13002 5.35208 1.87433 5.13176C1.61865 4.91145 1.45398 4.60753 1.4112 4.277L3.1962 1.36842ZM5.6 9.57895H2.8V7.52632H5.6V9.57895Z" fill="#222222"/>
</g>
<defs>
<clipPath id="clip0_1167_1592">
<rect width="14" height="13" fill="white"/>
</clipPath>
</defs>
</svg>
