<svg width="28" height="32" viewBox="0 0 28 32" fill="none" xmlns="http://www.w3.org/2000/svg">
<path d="M6.82667 14.3867C8.74667 18.16 11.84 21.2533 15.6133 23.1733L18.5467 20.24C18.92 19.8667 19.44 19.76 19.9067 19.9067C21.4 20.4 23 20.6667 24.6667 20.6667C25.0203 20.6667 25.3594 20.8071 25.6095 21.0572C25.8595 21.3072 26 21.6464 26 22V26.6667C26 27.0203 25.8595 27.3594 25.6095 27.6095C25.3594 27.8595 25.0203 28 24.6667 28C18.6551 28 12.8897 25.6119 8.63891 21.3611C4.38809 17.1103 2 11.3449 2 5.33333C2 4.97971 2.14048 4.64057 2.39052 4.39052C2.64057 4.14048 2.97971 4 3.33333 4H8C8.35362 4 8.69276 4.14048 8.94281 4.39052C9.19286 4.64057 9.33333 4.97971 9.33333 5.33333C9.33333 7 9.6 8.6 10.0933 10.0933C10.24 10.56 10.1333 11.08 9.76 11.4533L6.82667 14.3867Z" fill="#FFC350"/>
</svg>
