<svg width="30" height="30" viewBox="0 0 30 30" fill="#1F3C8F" xmlns="http://www.w3.org/2000/svg">
<g clip-path="url(#clip0_1576_1592)">
<path d="M3.33333 30C2.41667 30 1.63222 29.6739 0.98 29.0217C0.327778 28.3694 0.00111111 27.5844 0 26.6667V3.33333C0 2.41667 0.326667 1.63222 0.98 0.98C1.63333 0.327778 2.41778 0.00111111 3.33333 0H26.6667C27.5833 0 28.3683 0.326667 29.0217 0.98C29.675 1.63333 30.0011 2.41778 30 3.33333V26.6667C30 27.5833 29.6739 28.3683 29.0217 29.0217C28.3694 29.675 27.5844 30.0011 26.6667 30H3.33333ZM3.33333 26.6667H26.6667V6.66667H3.33333V26.6667ZM15 23.3333C12.7222 23.3333 10.6878 22.7156 8.89667 21.48C7.10556 20.2444 5.80667 18.64 5 16.6667C5.80556 14.6944 7.10445 13.0906 8.89667 11.855C10.6889 10.6194 12.7233 10.0011 15 10C17.2767 9.99889 19.3117 10.6172 21.105 11.855C22.8983 13.0928 24.1967 14.6967 25 16.6667C24.1944 18.6389 22.8961 20.2433 21.105 21.48C19.3139 22.7167 17.2789 23.3344 15 23.3333ZM15 20.8333C16.5556 20.8333 17.9722 20.465 19.25 19.7283C20.5278 18.9917 21.5278 17.9711 22.25 16.6667C21.5278 15.3611 20.5278 14.34 19.25 13.6033C17.9722 12.8667 16.5556 12.4989 15 12.5C13.4444 12.5011 12.0278 12.8694 10.75 13.605C9.47222 14.3406 8.47222 15.3611 7.75 16.6667C8.47222 17.9722 9.47222 18.9933 10.75 19.73C12.0278 20.4667 13.4444 20.8344 15 20.8333ZM15 19.1667C15.6944 19.1667 16.285 18.9239 16.7717 18.4383C17.2583 17.9528 17.5011 17.3622 17.5 16.6667C17.4989 15.9711 17.2561 15.3811 16.7717 14.8967C16.2872 14.4122 15.6967 14.1689 15 14.1667C14.3033 14.1644 13.7133 14.4078 13.23 14.8967C12.7467 15.3856 12.5033 15.9756 12.5 16.6667C12.4967 17.3578 12.74 17.9483 13.23 18.4383C13.72 18.9283 14.31 19.1711 15 19.1667Z" fill="#1F3C8F"/>
</g>
<defs>
<clipPath id="clip0_1576_1592">
<rect width="30" height="30" fill="#1F3C8F"/>
</clipPath>
</defs>
</svg>
