<svg width="18" height="16" viewBox="0 0 18 16" fill="none" xmlns="http://www.w3.org/2000/svg">
<g clip-path="url(#clip0_1320_1614)">
<path d="M9.75 1C9.75 1.19891 9.67099 1.38968 9.53033 1.53033C9.38968 1.67098 9.19892 1.75 9 1.75L3 1.75C2.9337 1.75 2.87011 1.77634 2.82323 1.82322C2.77634 1.87011 2.75 1.9337 2.75 2L2.75 14C2.75 14.0663 2.77634 14.1299 2.82323 14.1768C2.87011 14.2237 2.9337 14.25 3 14.25L9 14.25C9.19891 14.25 9.38968 14.329 9.53033 14.4697C9.67098 14.6103 9.75 14.8011 9.75 15C9.75 15.1989 9.67098 15.3897 9.53033 15.5303C9.38968 15.671 9.19891 15.75 9 15.75L3 15.75C2.034 15.75 1.25 14.966 1.25 14L1.25 2C1.25 1.53587 1.43438 1.09075 1.76257 0.762563C2.09076 0.434374 2.53587 0.249999 3 0.249999L9 0.25C9.19892 0.25 9.38968 0.329017 9.53033 0.469669C9.67099 0.610322 9.75 0.801087 9.75 1Z" fill="black"/>
<path d="M5.38802 6.88498C5.38802 6.61977 5.49337 6.36541 5.68091 6.17788C5.86844 5.99034 6.1228 5.88498 6.38802 5.88498L11.244 5.88498C11.2673 5.52965 11.296 5.17432 11.33 4.81898L11.36 4.51398C11.3712 4.39904 11.4099 4.28848 11.4729 4.19169C11.5359 4.09491 11.6214 4.01475 11.722 3.95802C11.8226 3.9013 11.9354 3.86967 12.0508 3.86583C12.1662 3.862 12.2809 3.88606 12.385 3.93599C14.2135 4.81126 15.8685 6.01025 17.27 7.47499L17.3 7.50598C17.429 7.64011 17.501 7.81893 17.501 8.00498C17.501 8.19104 17.429 8.36986 17.3 8.50398L17.27 8.53498C15.8685 9.99972 14.2135 11.1987 12.385 12.074C12.2809 12.1239 12.1662 12.148 12.0508 12.1441C11.9354 12.1403 11.8226 12.1087 11.722 12.0519C11.6214 11.9952 11.5359 11.9151 11.4729 11.8183C11.4099 11.7215 11.3712 11.6109 11.36 11.496L11.33 11.191C11.296 10.8363 11.2673 10.481 11.244 10.125L6.38801 10.125C6.1228 10.125 5.86844 10.0196 5.68091 9.83209C5.49337 9.64455 5.38802 9.3902 5.38802 9.12498L5.38802 6.88498Z" fill="black"/>
</g>
<defs>
<clipPath id="clip0_1320_1614">
<rect width="18" height="16" fill="white" transform="translate(18 16) rotate(-180)"/>
</clipPath>
</defs>
</svg>
