<svg width="108" height="108" viewBox="0 0 108 108" fill="none" xmlns="http://www.w3.org/2000/svg">
<path d="M83.4301 12.765L58.6801 3.495C56.1151 2.55 51.9301 2.55 49.3651 3.495L24.6151 12.765C19.8451 14.565 15.9751 20.145 15.9751 25.23V61.68C15.9751 65.325 18.3601 70.14 21.2851 72.3L46.0351 90.795C50.4001 94.08 57.5551 94.08 61.9201 90.795L86.6701 72.3C89.5951 70.095 91.9801 65.325 91.9801 61.68V25.23C92.0251 20.145 88.1551 14.565 83.4301 12.765ZM57.3751 51.915V63.75C57.3751 65.595 55.8451 67.125 54.0001 67.125C52.1551 67.125 50.6251 65.595 50.6251 63.75V51.915C46.0801 50.475 42.7501 46.245 42.7501 41.25C42.7501 35.04 47.7901 30 54.0001 30C60.2101 30 65.2501 35.04 65.2501 41.25C65.2501 46.29 61.9201 50.475 57.3751 51.915Z" fill="#FFC350"/>
</svg>
