<svg width="21" height="22" viewBox="0 0 21 22" fill="none" xmlns="http://www.w3.org/2000/svg">
<path fill-rule="evenodd" clip-rule="evenodd" d="M7.46342 0.955419C8.15882 0.362857 9.03612 0.0262106 9.94942 0.00146804C10.8627 -0.0232746 11.757 0.265378 12.4834 0.819419L12.6534 0.955419L13.0294 1.27542C13.3031 1.50905 13.6348 1.66451 13.9894 1.72542L14.1674 1.74742L14.6604 1.78742C15.5737 1.86029 16.4343 2.24446 17.0983 2.8757C17.7623 3.50695 18.1895 4.347 18.3084 5.25542L18.3294 5.45542L18.3694 5.94942C18.3977 6.30774 18.5221 6.6518 18.7294 6.94542L18.8394 7.08742L19.1614 7.46342C19.754 8.15882 20.0906 9.03612 20.1154 9.94942C20.1401 10.8627 19.8515 11.757 19.2974 12.4834L19.1614 12.6534L18.8404 13.0294C18.6068 13.3031 18.4513 13.6348 18.3904 13.9894L18.3684 14.1674L18.3294 14.6604C18.2565 15.5737 17.8724 16.4343 17.2411 17.0983C16.6099 17.7623 15.7698 18.1895 14.8614 18.3084L14.6604 18.3294L14.1674 18.3694C13.8091 18.3977 13.465 18.5221 13.1714 18.7294L13.0294 18.8404L12.6524 19.1604C11.9571 19.7531 11.0799 20.09 10.1666 20.1149C9.2533 20.1398 8.359 19.8513 7.63242 19.2974L7.46342 19.1614L7.08742 18.8404C6.81373 18.6068 6.48208 18.4513 6.12742 18.3904L5.94942 18.3694L5.45642 18.3294C4.54315 18.2565 3.68257 17.8724 3.01856 17.2411C2.35456 16.6099 1.92737 15.7698 1.80842 14.8614L1.78742 14.6614L1.74742 14.1674C1.7191 13.8091 1.59474 13.465 1.38742 13.1714L1.27642 13.0294L0.955419 12.6524C0.362857 11.957 0.0262106 11.0797 0.00146804 10.1664C-0.0232746 9.25313 0.265378 8.35889 0.819419 7.63242L0.955419 7.46342L1.27542 7.08742C1.50905 6.81373 1.66451 6.48208 1.72542 6.12742L1.74742 5.94942L1.78742 5.45642C1.86029 4.54315 2.24446 3.68257 2.8757 3.01856C3.50695 2.35456 4.347 1.92737 5.25542 1.80842L5.45542 1.78742L5.94942 1.74742C6.30774 1.7191 6.6518 1.59474 6.94542 1.38742L7.08742 1.27642L7.46342 0.955419ZM12.5584 11.0584C12.1606 11.0584 11.7791 11.2165 11.4978 11.4978C11.2165 11.7791 11.0584 12.1606 11.0584 12.5584C11.0584 12.9562 11.2165 13.3378 11.4978 13.6191C11.7791 13.9004 12.1606 14.0584 12.5584 14.0584C12.9562 14.0584 13.3378 13.9004 13.6191 13.6191C13.9004 13.3378 14.0584 12.9562 14.0584 12.5584C14.0584 12.1606 13.9004 11.7791 13.6191 11.4978C13.3378 11.2165 12.9562 11.0584 12.5584 11.0584ZM12.3514 6.35142L6.35142 12.3514C6.25591 12.4437 6.17973 12.554 6.12732 12.676C6.07491 12.798 6.04732 12.9292 6.04617 13.062C6.04501 13.1948 6.07032 13.3265 6.1206 13.4494C6.17088 13.5723 6.24513 13.6839 6.33902 13.7778C6.43292 13.8717 6.54457 13.946 6.66747 13.9962C6.79036 14.0465 6.92204 14.0718 7.05482 14.0707C7.1876 14.0695 7.31882 14.0419 7.44082 13.9895C7.56283 13.9371 7.67317 13.8609 7.76542 13.7654L13.7654 7.76542C13.9476 7.57682 14.0484 7.32421 14.0461 7.06202C14.0438 6.79982 13.9386 6.54901 13.7532 6.3636C13.5678 6.17819 13.317 6.07302 13.0548 6.07075C12.7926 6.06847 12.54 6.16926 12.3514 6.35142ZM7.55842 6.05842C7.16059 6.05842 6.77906 6.21645 6.49776 6.49776C6.21645 6.77906 6.05842 7.16059 6.05842 7.55842C6.05842 7.95624 6.21645 8.33778 6.49776 8.61908C6.77906 8.90038 7.16059 9.05842 7.55842 9.05842C7.95624 9.05842 8.33778 8.90038 8.61908 8.61908C8.90038 8.33778 9.05842 7.95624 9.05842 7.55842C9.05842 7.16059 8.90038 6.77906 8.61908 6.49776C8.33778 6.21645 7.95624 6.05842 7.55842 6.05842Z" fill="#FFEAEA"/>
</svg>
